<svg xmlns="http://www.w3.org/2000/svg" width="400" height="400" viewBox="0 0 610 610"><path d="m341.05 1.275c12 1.1 12.7 1.3 12.7 3.4 0 1.9-.8 2.3-8.2 3.3-16.9 2.4-40.9 8.5-53.8 13.5-12.1 4.8-15.9 6.5-28.1 12.6-32.9 16.5-61.4 38.1-83 63-6.5 7.5-21 27-23 30.9-.8 1.4-2.6 4.4-4 6.6-7.3 11.1-22 45.3-25.9 60-.4 1.6-1.7 6.4-2.8 10.5-6 21.8-8.7 42.4-8.7 66 0 22.3 1.4 34 7.1 58 5.1 21.5 18 52.9 29.3 71.3 2.2 3.7 4.1 6.9 4.1 7.2 0 .7 6.2 9.8 14.9 21.5 11.1 15.1 35 39.1 50.1 50.2 16 11.8 23 16 40.5 24.5 5 2.4 9.8 4.8 10.8 5.4 4.1 2.3 25.2 9.7 38.2 13.4 19.7 5.7 52.5 10.5 71 10.5 16.7-.1 47.3-4.3 62.5-8.7 26.1-7.6 42.5-14.6 69.4-29.7 1.1-.6 7.1-4.6 13.4-8.8 10.8-7.3 15.3-10.7 24.7-18.8 6.5-5.6 22.9-22.6 26.6-27.4 3.7-5 7.9-6.3 7.9-2.5 0 2.7-4.1 11.1-11.4 23.4-5.7 9.6-17.3 27.5-18.5 28.5-.3.3-2.5 3-4.7 6-13.1 17.5-35.2 39.1-55.9 54.6-8 6-17.3 12.4-18 12.4-.2 0-4 2.3-8.4 5-8.7 5.4-27.6 15.1-38.1 19.5-38.1 16.2-74.7 23.5-116.9 23.5-56.7-.1-107.1-13.1-154.6-39.9-37.3-21.1-67.6-47.8-92.8-81.8-27.4-37-48.7-86-55.5-127.3-3.4-20.6-3.7-24.7-3.7-53.5 0-28.6.4-34.2 3.6-54.5 2.6-16.2 8.4-38.9 13-51 1.1-3 2.4-6.6 2.9-8 2.5-7.6 12.7-29.4 19.9-42.5 6.2-11.1 21.9-33.9 30.4-44 12.1-14.4 32.3-33.6 46.4-44.3 11.2-8.5 28.4-20.2 29.6-20.2.3 0 3.8-1.9 7.9-4.3 13.3-7.9 36-18.1 50.8-23 34.2-11.3 58.7-15.3 95-15.6 11.3-.1 26.2.4 33.3 1.1zm24.6 106c1.1 1.3 3.8 4.6 6 7.5 2.2 2.8 7.3 7.8 11.2 11 10.3 8.4 9.5 8 12.2 5.5 2.6-2.5 7.8-2.9 9.9-.9.7 .8 2.9 3.7 4.8 6.5 3.5 5.3 8.2 8.4 15.9 10.8 5 1.5 7.8.6 11.8-3.8 2.5-2.7 7.8-13 8.8-17.1.5-2 1.3-2.7 3.1-2.7 1.9 0 2.5.7 3.2 3.7.5 2.1 1.4 6 2.1 8.8.6 2.7 3.2 9.2 5.6 14.2 2.5 5.1 5.6 12.5 6.9 16.5 1.3 4 3.7 10 5.4 13.3 1.7 3.3 3.7 7.9 4.5 10.3 2.1 6.1 5.6 10.8 9.4 12.6 3.1 1.5 3.2 1.4 3.9-.7.4-1.2 1.7-3.8 3-5.7 1.7-2.5 2.4-4.9 2.4-8.5 0-2.7.7-7.7 1.5-11 .8-3.3 1.4-8.6 1.5-11.8 0-5.2.2-5.7 2.3-5.7 1.2 0 4.6 1.2 7.4 2.7l5.3 2.7 2.9-2.8c2.8-2.6 6.4-9 9-15.9.7-1.7 1.8-2.7 3.1-2.7 2.6 0 6-1.8 7.8-3.9 4-5.1 8.5-16.9 10.2-26.9 1-6 1.5-7.2 3.1-7.2 1.8 0 1.9.9 1.9 13.7.1 28.1 4.3 41.7 13.6 43.2 3.6.6 3.9.9 4.2 4.3.2 2-.4 5.3-1.2 7.3-2.1 5-2 10.9.3 17.5 2.6 7.4 5.2 9.4 11.3 8.6 2.6-.4 6.6-1.3 8.9-2.1 2.3-.8 6.6-1.5 9.5-1.5 5.2 0 5.4.1 5.4 2.7 0 2.1-1 3.4-3.8 5.1-4.1 2.5-10.8 12.6-16.1 24.2-1.6 3.6-5.5 12.1-8.6 19-3.1 6.9-6.5 13.4-7.5 14.5-1 1.1-2.5 4-3.4 6.5-1.5 4.3-1.4 4.7.8 9 1.3 2.5 3.4 5 4.7 5.7 1.4.6 6.4 1.3 11.2 1.4 8 .2 9 0 11.3-2.2 1.4-1.3 3.3-3.6 4.2-5.2.9-1.5 2.4-2.7 3.4-2.7 3 0 2.3 6-1.2 10.9-3.3 4.5-3 4.2-14.1 15.7-4.1 4.3-9.3 10.1-11.5 12.9-2.1 2.7-5.8 7-8.1 9.5-2.4 2.5-5 6.3-5.9 8.6-1.7 4.5-3.8 5.8-15.2 9.8-9.2 3.3-16.2 4.1-23.2 2.8-6.2-1.1-6.9-1-4.9 1.4.7 .9 1.8 2.4 2.4 3.4 2.8 5.1 7.7 12.8 16.2 25.7 10.6 16.2 11.8 20.3 6.1 20.3-2.9 0-3.7-.7-6.4-5.3-1.7-2.8-8.1-13.4-14.1-23.4l-11-18.2-1.3 4.2c-1.8 6.4-5.9 14.5-7.9 15.9-1 .7-2.9 3.1-4.3 5.3-3.7 5.8-8.5 9.5-12.5 9.5-2.9 0-3.4-.4-3.9-3-.5-2.4-1-2.8-2.3-2.1-2 1.1-11.3 4.2-20.1 6.6-9.4 2.6-16.6 5-23.7 7.9-3.5 1.5-8.2 2.6-10.5 2.6-2.4 0-6 .5-8.1 1.1-4.9 1.3-7.9.4-7.5-2.4.2-1.6 1.2-2.3 3.8-2.8 7-1.1 9.2-3.2 14.2-13.1l4.7-9.3-1.7-6.7-1.7-6.7-4-.5c-3-.4-25.4-1.4-40-1.8-7.5-.2-29.1 2.5-34 4.3-3.3 1.1-7.7 2.3-9.7 2.6-3.5.5-3.8.3-3.8-1.8 0-1.7 2.4-4.7 7.5-9.7 11.9-11.6 14.1-18.3 8.6-25.9-4.9-6.7-19.1-17.3-23.2-17.3-3.5 0-6.6-6.8-3.9-8.5 1.9-1.2.9-3.4-4-8.8-5.5-6-11.8-10.1-25.5-16.5-13.8-6.5-14-6.6-14.3-9.1l-.4-2.3 9.9.4c7.2.3 12.1 1.1 18.6 3.3l8.7 2.9 2.8-2.6c2.5-2.4 3.5-2.6 14.3-3 13.8-.5 16.4-1.7 16.4-7.6 0-3.5.2-3.7 3.5-4 4.1-.3 13.2 1.7 21 4.8 18 7 22.3 7.6 24.2 3.4 1.1-2.3.8-3.3-1.7-8.2-1.6-3.2-4.3-7.3-6-9.2-5.7-6.6-38-37.9-40-38.8-9.5-4.1-12-5.8-12.3-8.3-.3-2.5 0-2.7 5.3-3.4 12-1.5 21.2-5.9 25.5-12.2 2-2.9 2.2-4.2 1.8-9.7-.3-3.5-1.3-7.5-2.2-8.7-2.4-3.4-2.1-10.1.5-12.5 2.8-2.5 2.1-7.4-2.1-15.6-6-11.5-10.1-22.1-9.5-24.5.7-3 4.6-3 7.4-.1z" fill="#3fa281" opacity=".66" /></svg>